<svg xmlns="http://www.w3.org/2000/svg" viewBox="0 0 500 500"><g id="freepik--background-complete--inject-78"><rect x="416.78" y="398.49" width="33.12" height="0.25" style="fill:#ebebeb"></rect><rect x="322.53" y="401.21" width="8.69" height="0.25" style="fill:#ebebeb"></rect><rect x="396.59" y="389.21" width="19.19" height="0.25" style="fill:#ebebeb"></rect><rect x="52.46" y="390.89" width="43.19" height="0.25" style="fill:#ebebeb"></rect><rect x="104.56" y="390.89" width="6.33" height="0.25" style="fill:#ebebeb"></rect><rect x="131.47" y="395.11" width="93.68" height="0.25" style="fill:#ebebeb"></rect><path d="M238.4,337.8H45.3a5.71,5.71,0,0,1-5.71-5.71V60.66A5.71,5.71,0,0,1,45.3,55H238.4a5.71,5.71,0,0,1,5.71,5.71V332.09A5.71,5.71,0,0,1,238.4,337.8ZM45.3,55.2a5.47,5.47,0,0,0-5.46,5.46V332.09a5.47,5.47,0,0,0,5.46,5.46H238.4a5.47,5.47,0,0,0,5.46-5.46V60.66a5.47,5.47,0,0,0-5.46-5.46Z" style="fill:#ebebeb"></path><path d="M454.7,337.8H261.6a5.71,5.71,0,0,1-5.71-5.71V60.66A5.71,5.71,0,0,1,261.6,55H454.7a5.71,5.71,0,0,1,5.71,5.71V332.09A5.71,5.71,0,0,1,454.7,337.8ZM261.6,55.2a5.47,5.47,0,0,0-5.46,5.46V332.09a5.47,5.47,0,0,0,5.46,5.46H454.7a5.47,5.47,0,0,0,5.46-5.46V60.66a5.47,5.47,0,0,0-5.46-5.46Z" style="fill:#ebebeb"></path><rect y="382.4" width="500" height="0.25" style="fill:#ebebeb"></rect><rect x="303.06" y="105.39" width="100.67" height="127.57" transform="translate(706.78 338.34) rotate(180)" style="fill:#f0f0f0"></rect><rect x="313.08" y="118.09" width="80.62" height="102.17" transform="translate(706.78 338.34) rotate(180)" style="fill:#fafafa"></rect><rect x="403.73" y="105.39" width="6.4" height="127.57" style="fill:#e0e0e0"></rect><path d="M341.66,170.74a23.07,23.07,0,0,0,32.63,32.63C383.3,194.36,350.67,161.73,341.66,170.74Z" style="fill:#f5f5f5"></path><path d="M374.74,168a18.15,18.15,0,0,0-25.68-25.67C342,149.45,367.65,175.12,374.74,168Z" style="fill:#ebebeb"></path><path d="M343.65,159.67l.16,5.63a.4.4,0,0,1-.65.27l-1-.81L338.89,156Z" style="fill:#e0e0e0"></path><path d="M345.43,157.89l6.34-.54a.35.35,0,0,0,.23-.61l-1-.81-10.29-1.76Z" style="fill:#e0e0e0"></path><polygon points="348.62 160.38 346.83 162.16 345.18 160.24 346.26 159.16 348.62 160.38" style="fill:#e0e0e0"></polygon><path d="M333.75,148.75l-8.48-6.62c-.55-.43-5.2-3.35-5.69-2.86s3.35,4.21,3.91,4.65l8.47,6.62a58.79,58.79,0,0,0,5.44,5.51l6.9,5.39,3.2-3.19-6.9-5.4A65.86,65.86,0,0,0,333.75,148.75Z" style="fill:#ebebeb"></path><rect x="380.64" y="245.88" width="55.26" height="136.92" transform="translate(816.54 628.67) rotate(180)" style="fill:#e6e6e6"></rect><rect x="277.28" y="245.88" width="115.43" height="136.92" transform="translate(669.99 628.67) rotate(180)" style="fill:#f5f5f5"></rect><path d="M282.78,254.52h48.81a0,0,0,0,1,0,0V361a15,15,0,0,1-15,15H297.75a15,15,0,0,1-15-15V254.52A0,0,0,0,1,282.78,254.52Z" transform="translate(614.36 630.52) rotate(180)" style="fill:#ebebeb"></path><path d="M337.28,254.52h48.81a0,0,0,0,1,0,0V361a15,15,0,0,1-15,15H352.25a15,15,0,0,1-15-15V254.52A0,0,0,0,1,337.28,254.52Z" transform="translate(723.36 630.52) rotate(180)" style="fill:#ebebeb"></path><path d="M341.67,314.34a4.85,4.85,0,1,0,4.84-5.15A5,5,0,0,0,341.67,314.34Z" style="fill:#e0e0e0"></path><path d="M316.69,314.34a4.85,4.85,0,1,0,4.85-5.15A5,5,0,0,0,316.69,314.34Z" style="fill:#e0e0e0"></path><path d="M92.93,382.71h0a1,1,0,0,1-.92-1.08l20.12-241.07h2v2H114L94,381.8A1,1,0,0,1,92.93,382.71Z" style="fill:#e0e0e0"></path><path d="M182.33,382.71h0a1,1,0,0,0,.92-1.08L163.13,140.56h-2v2h.16l12.86,154.16H109.43l-13-156.16h-2v2h.16l20,239.24a1,1,0,0,0,1.08.91h0a1,1,0,0,0,.92-1.08l-6.92-82.91h64.72l6.93,83.08A1,1,0,0,0,182.33,382.71Z" style="fill:#e0e0e0"></path><polygon points="186.96 264.88 91.37 264.88 79.3 120.26 174.89 120.26 186.96 264.88" style="fill:#f5f5f5"></polygon><path d="M174.81,123.66H79.15A3.17,3.17,0,0,1,76,120.49h0a3.17,3.17,0,0,1,3.17-3.17h95.66a3.17,3.17,0,0,1,3.17,3.17h0A3.17,3.17,0,0,1,174.81,123.66Z" style="fill:#ebebeb"></path><path d="M136.72,235.51l-12.51,13.27a1.29,1.29,0,0,1-2.11-.87l-.52-4.24,12.76-27.58Z" style="fill:#e0e0e0"></path><path d="M144.9,235.52l15.77,13.27a1.1,1.1,0,0,0,1.9-.87l-.53-4.24-19.52-27.59Z" style="fill:#e0e0e0"></path><polygon points="146.5 248.51 138.31 248.51 138.93 240.33 143.88 240.33 146.5 248.51" style="fill:#e0e0e0"></polygon><path d="M139.06,187.82l-4.24-34.57c-.27-2.26-4.23-19.59-6.49-19.59s-2,17.33-1.69,19.59l4.24,34.57a189,189,0,0,0-.17,25.08l3.45,28.16h14.66l-3.45-28.17A207.32,207.32,0,0,0,139.06,187.82Z" style="fill:#ebebeb"></path><polygon points="169.69 251.48 165.64 251.47 165.77 246.01 168.22 246.01 169.69 251.48" style="fill:#e0e0e0"></polygon><path d="M163.49,247.31l-3.43-28c-.26-2.1-.59-18.22,1.43-18.22s5.64,16.12,5.9,18.22l3.43,28Z" style="fill:#e0e0e0"></path><polygon points="119.71 251.47 115.65 251.47 115.78 246 118.24 246 119.71 251.47" style="fill:#e0e0e0"></polygon><path d="M113.51,247.3l-3.43-28c-.26-2.1-.6-18.22,1.43-18.22s5.64,16.12,5.89,18.22l3.43,28Z" style="fill:#e0e0e0"></path><polygon points="125.4 166.44 122.23 161.91 121.67 155.24 90.56 155.24 91.3 164.09 121.41 164.09 125.4 166.44" style="fill:#e0e0e0"></polygon><polygon points="142.45 190.44 145.62 185.91 146.18 179.24 177.28 179.24 176.54 188.09 146.44 188.09 142.45 190.44" style="fill:#e0e0e0"></polygon></g><g id="freepik--Shadow--inject-78"><ellipse id="freepik--path--inject-78" cx="250" cy="415.69" rx="193.89" ry="11.32" style="fill:#f5f5f5"></ellipse></g><g id="freepik--Character--inject-78"><path d="M298,306.48s20.39-8.32,63.91,7.86l-3.84-40.43,3.14-33.52-38.72-8.07-11.79,35.94Z" style="fill:#407BFF"></path><path d="M298,306.48s20.39-8.32,63.91,7.86l-3.84-40.43,3.14-33.52-38.72-8.07-11.79,35.94Z" style="fill:#fff;opacity:0.5"></path><path d="M338.28,181.67q-3.51,5.33-7.13,10.6l-7.24,10.5c-1.18,1.75-2.4,3.48-3.53,5.2a15.56,15.56,0,0,1-3,3.36,10.36,10.36,0,0,1-4.84,2.3,9.89,9.89,0,0,1-5.15-.52,13.55,13.55,0,0,1-3.69-2.16,18.34,18.34,0,0,1-2.68-2.68,21.93,21.93,0,0,1-2.1-3l4-3.07c.68.52,1.49,1.18,2.26,1.67a17.85,17.85,0,0,0,2.33,1.31,6.77,6.77,0,0,0,2.06.61,1.7,1.7,0,0,0,1.18-.2,3.41,3.41,0,0,0,.74-.72,12.24,12.24,0,0,0,1-1.64c1.09-1.93,2.17-3.8,3.3-5.65,2.24-3.69,4.53-7.32,6.86-10.92s4.72-7.15,7.19-10.68Z" style="fill:#803e3c"></path><path d="M303.52,202.92l-5.62-6.26-2.65,8.17s4.38,4.46,6.56,1.63Z" style="fill:#7f3e3b"></path><polygon points="290.4 195.04 290.51 202.84 295.25 204.83 297.9 196.66 290.4 195.04" style="fill:#7f3e3b"></polygon><path d="M334.83,170.6c-9.28,4.54-22.75,30.18-24.37,33.38-.64,1.26-5.47-1.4-5.47-1.4l-4,7.15s4.49,6.36,12,5.32,11.23-9.1,13.4-13.29c1.7-3.26,5.37-9.61,7.17-12.82C335.76,184.93,342.87,166.67,334.83,170.6Z" style="fill:#407BFF"></path><path d="M334.83,170.6c-9.28,4.54-22.75,30.18-24.37,33.38-.64,1.26-5.47-1.4-5.47-1.4l-4,7.15s4.49,6.36,12,5.32,11.23-9.1,13.4-13.29c1.7-3.26,5.37-9.61,7.17-12.82C335.76,184.93,342.87,166.67,334.83,170.6Z" style="fill:#fff;opacity:0.7000000000000001"></path><path d="M323.24,207.36a63.8,63.8,0,0,0,3.1-5.6c1.37-2.63,4-7.3,6-10.68l.68-10.64-1.68-2.1C319.3,199.37,321.24,205.89,323.24,207.36Z" style="opacity:0.2"></path><polygon points="300.31 407.1 293.38 404.84 297.69 388.49 304.62 390.74 300.31 407.1" style="fill:#7f3e3b"></polygon><path d="M293.27,403.92l7.79,2.53a.51.51,0,0,1,.36.64l-1.62,6.29a1.29,1.29,0,0,1-1.61.84c-2.7-.93-3.94-1.51-7.37-2.62-2.11-.68-11.14-3.37-14.05-4.32s-1.89-3.79-.58-3.65c5.91.62,13.29,1.23,15.75.33A2.1,2.1,0,0,1,293.27,403.92Z" style="fill:#263238"></path><polygon points="304.62 390.75 297.68 388.5 295.46 396.93 302.4 399.18 304.62 390.75" style="opacity:0.2"></polygon><path d="M321.52,225.21s-9.85,59.34-12.76,80c-3.2,22.67-15.75,89-15.75,89l12.87,3.55s18.38-64.25,23.59-86.28c5.66-23.92,18.11-86.29,18.11-86.29Z" style="fill:#407BFF"></path><path d="M337.33,249.55c-5,12.57-5.61,33.95-3.56,42.72,3.09-14.39,6.63-31.6,9.35-45C342.15,243.85,340.39,241.9,337.33,249.55Z" style="opacity:0.30000000000000004"></path><polygon points="306.2 398.04 292.42 394.24 292.69 388.63 308.21 393.99 306.2 398.04" style="fill:#407BFF"></polygon><path d="M289.24,403.55a.94.94,0,0,1,.08-.95.65.65,0,0,1,.53-.33c.95-.06,2.48,1.92,2.65,2.14a.17.17,0,0,1,0,.19.17.17,0,0,1-.16.09,9.25,9.25,0,0,1-1.93-.36A2,2,0,0,1,289.24,403.55Zm.63-.94a.3.3,0,0,0-.26.17.6.6,0,0,0-.07.61c.22.43,1.12.76,2.44.92C291.34,403.53,290.38,402.58,289.87,402.61Z" style="fill:#407BFF"></path><path d="M292.24,404.63c-.56-.64-1.12-2.42-.72-3.12a.65.65,0,0,1,.75-.3.84.84,0,0,1,.61.44c.48.91-.32,2.85-.36,2.93a.15.15,0,0,1-.13.1h-.08A.18.18,0,0,1,292.24,404.63Zm0-3.09c-.24-.05-.33,0-.38.13a3.39,3.39,0,0,0,.5,2.49,3.78,3.78,0,0,0,.26-2.35.53.53,0,0,0-.3-.25Z" style="fill:#407BFF"></path><polygon points="355.83 410.29 348.54 410.29 347.59 393.4 354.88 393.4 355.83 410.29" style="fill:#7f3e3b"></polygon><path d="M348.16,409.44h8.19a.53.53,0,0,1,.54.5l.39,6.48a1.3,1.3,0,0,1-1.27,1.3c-2.85-.05-4.22-.22-7.82-.22-2.21,0-11.64.23-14.7.23s-3-3-1.67-3.3c5.81-1.23,13-2.92,15.08-4.54A2.07,2.07,0,0,1,348.16,409.44Z" style="fill:#263238"></path><polygon points="354.88 393.41 347.59 393.41 348.08 402.11 355.38 402.11 354.88 393.41" style="opacity:0.2"></polygon><path d="M335.76,224.83s.23,55.72,1.42,76.59C338.47,324.28,345,400,345,400h13.36s-.4-73.88.4-96.51c.88-24.57,3.14-78.67,3.14-78.67Z" style="fill:#407BFF"></path><polygon points="358.85 400.01 344.42 400.01 343.62 394.94 359.54 395.73 358.85 400.01" style="fill:#407BFF"></polygon><path d="M344.2,410.33a1,1,0,0,1-.21-.93.64.64,0,0,1,.4-.48c.89-.35,2.95,1.06,3.18,1.23a.16.16,0,0,1,.07.17.16.16,0,0,1-.13.13,9.2,9.2,0,0,1-1.94.26A2,2,0,0,1,344.2,410.33Zm.31-1.09a.3.3,0,0,0-.19.24.6.6,0,0,0,.12.6c.34.34,1.3.38,2.61.12C346.2,409.67,345,409.05,344.51,409.24Z" style="fill:#407BFF"></path><path d="M347.39,410.43c-.73-.43-1.81-1.95-1.65-2.75a.66.66,0,0,1,.62-.51.83.83,0,0,1,.72.23c.74.71.57,2.81.56,2.9a.15.15,0,0,1-.09.14h-.07A.15.15,0,0,1,347.39,410.43Zm-1-2.93c-.25,0-.3.15-.32.25-.11.52.61,1.68,1.24,2.21a3.76,3.76,0,0,0-.48-2.31.49.49,0,0,0-.36-.15Z" style="fill:#407BFF"></path><path d="M376.67,178.69a170.55,170.55,0,0,0-7.79,24.2c-1.42,5.75-2.52,11.28-3.4,16.3-2.06,11.78-2.89,20.86-3.61,23.88L322,235c-.29-43.65,12.84-64.4,12.84-64.4a78.08,78.08,0,0,1,9.77.07c.69,0,1.38.11,2.09.19a151.33,151.33,0,0,1,17,3.43c1.06.27,2.13.57,3.16.88C372.09,176.75,376.67,178.69,376.67,178.69Z" style="fill:#407BFF"></path><path d="M376.67,178.69a170.55,170.55,0,0,0-7.79,24.2c-1.42,5.75-2.52,11.28-3.4,16.3-2.06,11.78-2.89,20.86-3.61,23.88L322,235c-.29-43.65,12.84-64.4,12.84-64.4a78.08,78.08,0,0,1,9.77.07c.69,0,1.38.11,2.09.19a151.33,151.33,0,0,1,17,3.43c1.06.27,2.13.57,3.16.88C372.09,176.75,376.67,178.69,376.67,178.69Z" style="fill:#fff;opacity:0.7000000000000001"></path><path d="M347.54,179.05c-1.56,2.79-3.71,4.94-6.4,12.47.17,1.72.42,3.45.75,5.21,1.23-1.41,2.53-2.81,3.88-4.2,2-7.38,1.59-9.5,3.36-13.1Z" style="fill:#407BFF"></path><polygon points="347.17 181.48 346.52 177.45 349.45 176.82 351.23 178.46 347.17 181.48" style="fill:#407BFF"></polygon><path d="M366.81,175.17a131.87,131.87,0,0,0-24.92,21.56c-1.74-9.3-1.32-18,1.78-26.12a79.14,79.14,0,0,0-8.84,0S321.7,191.35,322,235l39.88,8.07c.72-3,1.55-12.1,3.61-23.88.88-5,2-10.55,3.4-16.3a170.55,170.55,0,0,1,7.79-24.2S372.09,176.75,366.81,175.17Z" style="fill:#263238"></path><path d="M365.64,154.85c-2.12,5.24-5.11,15-2,19.44a17.14,17.14,0,0,1-14.07,2.56c-4.67-1.06-4.28-4.39-2.88-6,6.36-.22,7.07-4.77,6.83-9.23Z" style="fill:#7f3e3b"></path><path d="M349.45,176.82s1.31,2.63,2.94,5.3c3.42-1,11.55-3.84,12.13-8a4.23,4.23,0,0,0-1.57-2.31A44.9,44.9,0,0,1,349.45,176.82Z" style="fill:#fff"></path><path d="M349.45,176.82a21.83,21.83,0,0,0-4.95,3.62c-1.89-2,1-9.29,2-9.95a5.26,5.26,0,0,1,3.22-.37S346.1,175.19,349.45,176.82Z" style="fill:#fff"></path><path d="M360.69,157.62l-7.17,4a17.06,17.06,0,0,1,0,3.12c2.39.13,6.07-1.77,6.78-4.16A8.2,8.2,0,0,0,360.69,157.62Z" style="opacity:0.2"></path><path d="M351.8,135.87c-2.07,2.27-4.15,7.93.38,7.89S355.36,132,351.8,135.87Z" style="fill:#263238"></path><path d="M369.24,148.37c-2.77,7-4,11.25-8.84,13.71-7.23,3.69-15-2.55-14.35-10.27.56-6.94,5-17.24,12.92-17.73A10.4,10.4,0,0,1,369.24,148.37Z" style="fill:#7f3e3b"></path><path d="M357.75,146.72c-.19.58-.65.95-1,.82s-.53-.7-.34-1.28.65-1,1-.83S357.94,146.14,357.75,146.72Z" style="fill:#263238"></path><path d="M351.18,144.5c-.19.59-.65.95-1,.83s-.54-.71-.35-1.29.66-.95,1-.82S351.37,143.92,351.18,144.5Z" style="fill:#263238"></path><path d="M353.18,145.5a20.87,20.87,0,0,1-4.4,3.85,3.66,3.66,0,0,0,2.62,1.4Z" style="fill:#630f0f"></path><path d="M352.34,154a5.83,5.83,0,0,1-.77-.2.19.19,0,0,1-.12-.23.18.18,0,0,1,.23-.12A4.82,4.82,0,0,0,356,153a.17.17,0,0,1,.25,0,.18.18,0,0,1,0,.25A5,5,0,0,1,352.34,154Z" style="fill:#263238"></path><path d="M360.47,145.28a.38.38,0,0,1-.27-.24,2.86,2.86,0,0,0-1.82-1.88.37.37,0,0,1-.26-.44.36.36,0,0,1,.44-.26,3.58,3.58,0,0,1,2.32,2.35.36.36,0,0,1-.22.45A.41.41,0,0,1,360.47,145.28Z" style="fill:#263238"></path><path d="M349.09,141.28a.35.35,0,0,1-.2-.6,3.54,3.54,0,0,1,3.09-1.1.36.36,0,0,1-.14.71,2.76,2.76,0,0,0-2.43.89A.33.33,0,0,1,349.09,141.28Z" style="fill:#263238"></path><path d="M367.51,174.7s-21.72,17.94-22.38,59.3,4.2,82.48,4.2,82.48h17.1s-10-19.87-3.76-71.93,16.05-65.28,16.05-65.28Z" style="fill:#407BFF"></path><path d="M367.51,174.7s-21.72,17.94-22.38,59.3,4.2,82.48,4.2,82.48h17.1s-10-19.87-3.76-71.93,16.05-65.28,16.05-65.28Z" style="fill:#fff;opacity:0.7000000000000001"></path><path d="M364.32,219.09,355,213.9,352,216a40.37,40.37,0,0,0,12.51,14.82c.58-3.87,1.18-7.46,1.79-10.8Z" style="opacity:0.2"></path><path d="M373.75,190.27l-1.47-7.49h-2.92l-1.24,6.47A93,93,0,0,1,369.48,205C371,198.8,372.44,194,373.75,190.27Z" style="opacity:0.2"></path><path d="M343.54,170.4s-6.8,5.95-10.73,33S309.18,273.63,301,310.47l-6.8-2.77s8.05-19.87,18.68-49.91,7.85-35.11,10.32-52.82,11.24-34.66,11.24-34.66Z" style="fill:#407BFF"></path><path d="M343.54,170.4s-6.8,5.95-10.73,33S309.18,273.63,301,310.47l-6.8-2.77s8.05-19.87,18.68-49.91,7.85-35.11,10.32-52.82,11.24-34.66,11.24-34.66Z" style="fill:#fff;opacity:0.7000000000000001"></path><path d="M361.18,145.63l-5.66-1.83a.69.69,0,0,0-.25,0,.82.82,0,0,0-.78.57h0a2.08,2.08,0,0,0-1.64-.54h0a.83.83,0,0,0-.53-1L348,141.35a.73.73,0,0,0-.25,0,.83.83,0,0,0-.79.57l-.88,2.71a.83.83,0,0,0,.53,1l4.35,1.41a.77.77,0,0,0,.25,0,.83.83,0,0,0,.79-.57l.71-2.19a1.64,1.64,0,0,1,1.64.51l-.71,2.21a.82.82,0,0,0,.53,1l5.65,1.84a1.09,1.09,0,0,0,.25,0,.83.83,0,0,0,.78-.57l.89-2.72A.83.83,0,0,0,361.18,145.63Zm-9.67.74a.35.35,0,0,1-.33.23h-.1l-4.35-1.42a.31.31,0,0,1-.2-.17.33.33,0,0,1,0-.26l.88-2.72a.35.35,0,0,1,.33-.23h.1l4.35,1.42a.28.28,0,0,1,.2.17.33.33,0,0,1,0,.26Zm9.74.15-.88,2.72a.35.35,0,0,1-.33.23h-.1l-5.66-1.84a.34.34,0,0,1-.22-.43l.89-2.71a.34.34,0,0,1,.32-.24.22.22,0,0,1,.11,0l5.65,1.83A.34.34,0,0,1,361.25,146.52Z" style="fill:#263238"></path><path d="M336.39,211.46l-1.93.52.52-1.93,11.14-11.14a1,1,0,0,1,1.41,0h0a1,1,0,0,1,0,1.41Z" style="fill:#263238"></path><path d="M336.39,211.46l-1.93.52.52-1.93,11.14-11.14a1,1,0,0,1,1.41,0h0a1,1,0,0,1,0,1.41Z" style="fill:#fff;opacity:0.8"></path><path d="M346.12,198.91,335,210.05l-.52,1.93,13.07-13.07A1,1,0,0,0,346.12,198.91Z" style="opacity:0.2"></path><rect x="345.05" y="199.99" width="0.8" height="1.99" transform="translate(-40.94 303.14) rotate(-45)" style="fill:#407BFF"></rect><path d="M352,208.86l-5.42-5.48-3.38,9.16s5.65,3.62,7.89.81Z" style="fill:#7f3e3b"></path><polygon points="340.32 202.58 337.88 210.27 343.21 212.54 346.59 203.38 340.32 202.58" style="fill:#7f3e3b"></polygon><path d="M384.07,211.81a87.14,87.14,0,0,0-.85-9,143.44,143.44,0,0,0-3.63-17.26l-9.81,2.65c1.31,5.29,2.53,10.81,3.47,16.18.47,2.69.85,5.38,1.08,8,.11,1.3.17,2.58.15,3.78a15.88,15.88,0,0,1-.26,2.92,9.77,9.77,0,0,1-1.43-.23,40.23,40.23,0,0,1-7.2-2.64c-2.47-1.12-4.94-2.39-7.4-3.7s-4.94-2.71-7.34-4.08l-3,4.05A99.66,99.66,0,0,0,362,223a42.51,42.51,0,0,0,8.48,4.09,17.2,17.2,0,0,0,2.68.67,11.19,11.19,0,0,0,3.47.08,8.71,8.71,0,0,0,2.24-.68,7.58,7.58,0,0,0,2.27-1.65,8.28,8.28,0,0,0,1.35-2.07,12.37,12.37,0,0,0,.61-1.55,22.58,22.58,0,0,0,.95-5.34C384.12,214.93,384.12,213.35,384.07,211.81Z" style="fill:#803e3c"></path><path d="M350.6,216l3.7-6.25s15.83,8.44,18.71,7.86c0,0,3-2.66-5.31-29.7-.86-2.8-.58-8.84,7.45-9.37,8.84-.58,9.53,18.77,10.22,29s.81,23-11,21.82S350.6,216,350.6,216Z" style="fill:#407BFF"></path><path d="M350.6,216l3.7-6.25s15.83,8.44,18.71,7.86c0,0,3-2.66-5.31-29.7-.86-2.8-.58-8.84,7.45-9.37,8.84-.58,9.53,18.77,10.22,29s.81,23-11,21.82S350.6,216,350.6,216Z" style="fill:#fff;opacity:0.7000000000000001"></path><polygon points="327.38 220.65 302.6 220.65 290.04 186.12 311.15 186.12 327.38 220.65" style="fill:#263238"></polygon><polygon points="327.38 220.65 302.6 220.65 290.04 186.12 311.15 186.12 327.38 220.65" style="fill:#fff;opacity:0.6000000000000001"></polygon><polygon points="325.51 223.59 302.15 223.59 288.24 185.38 311.61 185.38 325.51 223.59" style="fill:#407BFF"></polygon><path d="M295.24,184.5l.87,2.39a2.34,2.34,0,0,0,2.21,1.54h6.53a1.05,1.05,0,0,0,1-1.41l-.92-2.52Z" style="fill:#263238"></path><path d="M294.32,184.5l.87,2.39a2.34,2.34,0,0,0,2.2,1.54h6.54a1.05,1.05,0,0,0,1-1.41L304,184.5Z" style="fill:#407BFF"></path><path d="M294.32,184.5l.87,2.39a2.34,2.34,0,0,0,2.2,1.54h6.54a1.05,1.05,0,0,0,1-1.41L304,184.5Z" style="opacity:0.5"></path><path d="M365.8,151.8a10.41,10.41,0,0,1,2.31-9.82s-11.75.29-11-3.23c0,0-10.82-2.75-7.95-7.85,2.14-3.82,5.28-.76,5.28-.76s-.19-3.9,3.6-4.39c4-.52,4.57,2.66,4.57,2.66s3.14-2.66,6.58-1.15a3.59,3.59,0,0,1,2,4.56s4.61.29,6.06,3.69a5.6,5.6,0,0,1-.46,5.38s3.47.8,2.31,5a3.81,3.81,0,0,1-3.35,3.14,4.94,4.94,0,0,1-2.83,5.08C369.4,155.72,365.8,151.8,365.8,151.8Z" style="fill:#263238"></path><path d="M370.05,155.23a7,7,0,0,1-4.64,2.85c-2.48.36-3.43-2-2.49-4.13.84-2,3.15-4.53,5.52-3.9A3.26,3.26,0,0,1,370.05,155.23Z" style="fill:#7f3e3b"></path><path d="M358.56,152.62c-.76-2.36-5.91-.58-5.91-.58-3.5-1.72-3.51-.66-3.5.21,0,2.8.22,9.61,5.23,9.91S359.33,155,358.56,152.62Zm-2.38,7c-2.09,1.57-2.07-4.23-2.07-4.23l-2.11-.48s2.16,3.69.4,4.67-2.31-7.2-2.31-7.2a5.2,5.2,0,0,0,2.48.56c2.23,1.15,3.14-.78,4.21,0S358.28,158,356.18,159.59Z" style="fill:#263238"></path></g><g id="freepik--speech-bubble-3--inject-78"><path d="M227.89,214.43H217.52A12.51,12.51,0,0,0,205,226.92V237.3a12.51,12.51,0,0,0,4.43,9.53L203,254.29a.79.79,0,0,0,.85,1.26L221,249.79h6.86a12.51,12.51,0,0,0,12.5-12.49V226.92A12.51,12.51,0,0,0,227.89,214.43Zm7.52,22.87a7.52,7.52,0,0,1-7.52,7.51H217.52A7.52,7.52,0,0,1,210,237.3V226.92a7.52,7.52,0,0,1,7.51-7.51h10.37a7.52,7.52,0,0,1,7.52,7.51Z" style="fill:#407BFF"></path><path d="M226.7,240.34l-4.15-6-4.08,6H213.9l6.37-8.74-6.05-8.45h4.52l4,5.58,3.88-5.58h4.3l-6,8.3,6.41,8.89Z"></path></g><g id="freepik--speech-bubble-2--inject-78"><path d="M217.22,134.27h-8.33a10,10,0,0,0-10,10v8.33a10,10,0,0,0,3.56,7.64l-5.18,6a.63.63,0,0,0,.68,1l13.79-4.61h5.51a10,10,0,0,0,10-10v-8.33A10,10,0,0,0,217.22,134.27Zm6,18.35a6,6,0,0,1-6,6h-8.33a6,6,0,0,1-6-6v-8.33a6,6,0,0,1,6-6h8.33a6,6,0,0,1,6,6Z" style="fill:#407BFF"></path><path d="M211.48,156.15a2.1,2.1,0,0,1-.67-1.58,2.07,2.07,0,0,1,.66-1.56,2.6,2.6,0,0,1,3.39,0,2.07,2.07,0,0,1,.66,1.56,2.1,2.1,0,0,1-.67,1.58,2.33,2.33,0,0,1-1.69.66A2.31,2.31,0,0,1,211.48,156.15Zm-.6-16.73h4.57l-.76,11.22h-3.05Z"></path></g><g id="freepik--speech-bubble-1--inject-78"><path d="M95.65,306.25v10.37a12.52,12.52,0,0,0,12.5,12.5H115l17.19,5.76a.78.78,0,0,0,.84-1.26l-6.45-7.47a12.45,12.45,0,0,0,4.43-9.53V306.25a12.51,12.51,0,0,0-12.49-12.5H108.15A12.52,12.52,0,0,0,95.65,306.25Zm5,0a7.52,7.52,0,0,1,7.51-7.51h10.38a7.52,7.52,0,0,1,7.51,7.51v10.37a7.52,7.52,0,0,1-7.51,7.52H108.15a7.52,7.52,0,0,1-7.51-7.52Z" style="fill:#407BFF"></path><path d="M112.78,312a11.7,11.7,0,0,1,1.69-1.84,9.88,9.88,0,0,0,1.19-1.24,1.84,1.84,0,0,0,.38-1.14,1.67,1.67,0,0,0-.73-1.44,3.2,3.2,0,0,0-1.93-.53,4.28,4.28,0,0,0-2,.48,4.49,4.49,0,0,0-1.51,1.34l-3-1.74a6.86,6.86,0,0,1,2.79-2.43,9.28,9.28,0,0,1,4.16-.86,7.71,7.71,0,0,1,4.53,1.2,3.86,3.86,0,0,1,1.71,3.34,4.44,4.44,0,0,1-.33,1.77,4.58,4.58,0,0,1-.81,1.29,16.25,16.25,0,0,1-1.24,1.21,10.09,10.09,0,0,0-1.33,1.37,2.14,2.14,0,0,0-.42,1.34h-3.7A3.68,3.68,0,0,1,112.78,312Zm-.39,7.63a2.11,2.11,0,0,1-.68-1.58,2,2,0,0,1,.67-1.56,2.34,2.34,0,0,1,1.69-.63,2.38,2.38,0,0,1,1.7.63,2,2,0,0,1,.66,1.56,2.11,2.11,0,0,1-.68,1.58,2.5,2.5,0,0,1-3.36,0Z"></path></g><g id="freepik--Rocket--inject-78"><polygon points="191.09 411.22 167.48 411.21 172.15 387.6 186.43 387.61 191.09 411.22" style="fill:#263238"></polygon><path d="M167.49,373.7,126.69,412a3.44,3.44,0,0,1-5.79-2.51V397.23l46.59-79.59Z" style="fill:#407BFF"></path><path d="M167.49,373.7,126.69,412a3.44,3.44,0,0,1-5.79-2.51V397.23l46.59-79.59Z" style="fill:#fff;opacity:0.5"></path><path d="M191.1,373.71,231.88,412a3.43,3.43,0,0,0,5.78-2.5V397.26l-46.56-79.61Z" style="fill:#407BFF"></path><path d="M191.1,373.71,231.88,412a3.43,3.43,0,0,0,5.78-2.5V397.26l-46.56-79.61Z" style="fill:#fff;opacity:0.5"></path><path d="M191.13,236.07l0-99.76c0-6.52-5.27-56.52-11.79-56.52s-11.82,50-11.82,56.52l0,99.76c-5.64,27.27-9.36,65.07-9.36,72.38l0,81.27h42.3l0-81.27C200.46,301.15,196.76,263.35,191.13,236.07Z" style="fill:#407BFF"></path><path d="M191.13,236.07l0-99.76c0-6.52-5.27-56.52-11.79-56.52s-11.82,50-11.82,56.52l0,99.76c-5.64,27.27-9.36,65.07-9.36,72.38l0,81.27h42.3l0-81.27C200.46,301.15,196.76,263.35,191.13,236.07Z" style="fill:#fff;opacity:0.5"></path><polygon points="216.85 419.76 205.15 419.76 207.47 403.99 214.54 403.99 216.85 419.76" style="fill:#263238"></polygon><path d="M200.43,407.74l0-80.76c0-6.06,4.75-52.57,10.59-52.57S221.6,320.92,221.6,327l0,80.76Z" style="fill:#407BFF"></path><path d="M212.16,275c3.59,15.22,5.34,45.18,5.14,50.23l-3.23,82.52h7.51l0-80.76C221.6,321.32,217.47,280.31,212.16,275Z" style="opacity:0.2"></path><rect x="200.45" y="329.5" width="21.15" height="11.58" style="fill:#263238"></rect><rect x="200.45" y="329.5" width="21.15" height="11.58" style="fill:#fff;opacity:0.5"></rect><polygon points="153.41 419.75 141.71 419.74 144.03 403.97 151.1 403.97 153.41 419.75" style="fill:#263238"></polygon><path d="M137,407.73,137,327c0-6.06,4.75-52.57,10.59-52.57s10.56,46.52,10.56,52.58l0,80.76Z" style="fill:#407BFF"></path><path d="M148.72,275c3.59,15.23,5.34,45.18,5.14,50.23l-3.23,82.52h7.51l0-80.76C158.16,321.3,154,280.3,148.72,275Z" style="opacity:0.2"></path><rect x="137.01" y="329.48" width="21.15" height="11.58" style="fill:#263238"></rect><rect x="137.01" y="329.48" width="21.15" height="11.58" style="fill:#fff;opacity:0.5"></rect><path d="M191.16,142.3v-6s0-.13,0-.17H167.56c0,.05,0,.14,0,.18v6Z" style="fill:#407BFF"></path><rect x="167.53" y="228.49" width="23.61" height="6.52" style="fill:#407BFF"></rect><polygon points="167.49 383.15 161.48 383.15 164.49 358.49 167.49 358.5 167.49 383.15" style="fill:#263238"></polygon><polygon points="176.93 383.16 170.92 383.15 172.93 358.5 176.94 358.5 176.93 383.16" style="fill:#263238"></polygon><polygon points="186.37 383.16 180.37 383.16 180.37 358.5 184.38 358.5 186.37 383.16" style="fill:#263238"></polygon><polygon points="195.81 383.16 189.81 383.16 189.81 358.5 192.82 358.5 195.81 383.16" style="fill:#263238"></polygon><path d="M171.44,150.78h0a1.54,1.54,0,0,1-1.54-1.54v-1.81a1.54,1.54,0,0,1,1.55-1.54h0a1.54,1.54,0,0,1,1.54,1.54v1.81A1.54,1.54,0,0,1,171.44,150.78Z" style="fill:#263238"></path><path d="M176.29,150.78h0a1.54,1.54,0,0,1-1.54-1.54v-1.81a1.54,1.54,0,0,1,1.54-1.54h0a1.54,1.54,0,0,1,1.54,1.54v1.81A1.54,1.54,0,0,1,176.29,150.78Z" style="fill:#263238"></path><path d="M181.13,150.78h0a1.54,1.54,0,0,1-1.54-1.54v-1.81a1.54,1.54,0,0,1,1.54-1.54h0a1.54,1.54,0,0,1,1.54,1.54v1.81A1.54,1.54,0,0,1,181.13,150.78Z" style="fill:#263238"></path><path d="M186,150.79h0a1.54,1.54,0,0,1-1.54-1.55v-1.81a1.54,1.54,0,0,1,1.54-1.54h0a1.54,1.54,0,0,1,1.54,1.54v1.82A1.54,1.54,0,0,1,186,150.79Z" style="fill:#263238"></path><path d="M171.44,158.77h0a1.54,1.54,0,0,1-1.54-1.54v-1.81a1.54,1.54,0,0,1,1.55-1.54h0a1.54,1.54,0,0,1,1.54,1.54v1.81A1.54,1.54,0,0,1,171.44,158.77Z" style="fill:#263238"></path><path d="M176.29,158.77h0a1.54,1.54,0,0,1-1.54-1.54v-1.81a1.54,1.54,0,0,1,1.54-1.54h0a1.54,1.54,0,0,1,1.54,1.54v1.81A1.54,1.54,0,0,1,176.29,158.77Z" style="fill:#263238"></path><path d="M181.13,158.77h0a1.54,1.54,0,0,1-1.54-1.54v-1.81a1.54,1.54,0,0,1,1.54-1.54h0a1.54,1.54,0,0,1,1.54,1.54v1.81A1.54,1.54,0,0,1,181.13,158.77Z" style="fill:#263238"></path><path d="M186,158.77h0a1.54,1.54,0,0,1-1.54-1.54v-1.81a1.54,1.54,0,0,1,1.54-1.54h0a1.54,1.54,0,0,1,1.54,1.54v1.81A1.53,1.53,0,0,1,186,158.77Z" style="fill:#263238"></path><path d="M158.16,308.45V312h42.3v-3.5c0-2.48-.44-8.52-1.22-16.42H159.39C158.6,299.93,158.16,306,158.16,308.45Z" style="fill:#407BFF"></path><path d="M191.13,236.07l0-99.76c0-6.15-4.7-51-10.71-56,4.41,13.59,6.73,48,6.54,53.41l-.88,100.77c4.88,28.46,7.36,67.9,7.09,75.53l-2.8,79.73h10l0-81.27C200.46,301.15,196.76,263.35,191.13,236.07Z" style="opacity:0.2"></path></g></svg>