<svg xmlns="http://www.w3.org/2000/svg" data-name="Layer 1" width="810.26473" height="551.3529" viewBox="0 0 810.26473 551.3529" xmlns:xlink="http://www.w3.org/1999/xlink"><path d="M504.97484,430.79c-12.26556-.16848-24.93694,6.14925-36.3558,1.66731-8.67051-3.40346-13.94869-12.11974-21.45777-17.631-14.18175-10.40839-34.61708-7.79731-49.83367,1.028A74.41192,74.41192,0,0,0,361.02483,475.162c-.62561,11.72846,1.57751,23.403,3.77037,34.94164l7.40346,38.9519c1.94783,10.24674,4.27112,21.20633,11.84307,28.37931,9.8623,9.34274,25.09814,9.17,38.6624,8.42036,21.81441-1.20505,44.60168-2.69532,63.35858-13.8978,24.64615-14.71884,37.89567-46.27412,31.146-74.17578l-4.53838-.12187c12.34809-3.51208,23.09387-13.52363,25.498-26.25829C541.86174,451.83552,524.88461,431.06451,504.97484,430.79Z" transform="translate(-194.86764 -174.32355)" fill="#f89c1c" data-darkreader-inline-fill="" style="--darkreader-inline-fill:#ba6e06;"/><path d="M829.20447,453.72059c-12.26556-.16848-24.93694,6.14925-36.3558,1.66731-8.67052-3.40346-13.94869-12.11974-21.45778-17.631-14.18174-10.40839-34.61707-7.79731-49.83366,1.028a74.41192,74.41192,0,0,0-36.30277,59.30769c-.62562,11.72846,1.57751,23.403,3.77037,34.94164l7.40346,38.9519c1.94783,10.24674,4.27112,21.20633,11.84307,28.37931,9.8623,9.34274,25.09814,9.17,38.6624,8.42036,21.81441-1.20505,44.60168-2.69532,63.35858-13.8978,24.64614-14.71884,37.89567-46.27412,31.146-74.17578L836.9,520.5904c12.34809-3.51208,23.09387-13.52363,25.498-26.25829C866.09137,474.76614,849.11424,453.99513,829.20447,453.72059Z" transform="translate(-194.86764 -174.32355)" fill="#f89c1c" data-darkreader-inline-fill="" style="--darkreader-inline-fill:#ba6e06;"/><path d="M365.74809,234.32391c-26.02587,154.602-28.10982,314.50573-9.88912,469.97561C351.85477,552.987,357.24857,384.10425,365.74809,234.32391Z" transform="translate(-194.86764 -174.32355)"/><path d="M828.2349,247.39032c7.16709,156.33678,14.54154,314.11,18.24608,470.33536C857.32707,566.43312,852.14441,395.95,828.2349,247.39032Z" transform="translate(-194.86764 -174.32355)"/><path d="M874.76274,247.39032c7.16826,156.33676,14.54123,314.11,18.24656,470.33536C903.85471,566.43315,898.673,395.94983,874.76274,247.39032Z" transform="translate(-194.86764 -174.32355)"/><path d="M303.50346,704.55975c2.85538-156.47514,5.59778-314.3962,11.90089-470.53865C294.89569,384.30924,289.15324,554.77417,303.50346,704.55975Z" transform="translate(-194.86764 -174.32355)"/><path d="M839.73881,293.71747c-159.74592-1.03284-320.14823-31.29278-479.49067-11.613C517.12649,276.78312,682.95671,309.97366,839.73881,293.71747Z" transform="translate(-194.86764 -174.32355)"/><path d="M839.73881,293.71747c-159.74592-1.03284-320.14823-31.29278-479.49067-11.613C517.12649,276.78312,682.95671,309.97366,839.73881,293.71747Z" transform="translate(-194.86764 -174.32355)"/><path d="M845.81791,342.54071c-163.952-16.95879-333.89441,19.80116-494.50014-5.13553C499.79936,376.4201,703.65537,342.52888,845.81791,342.54071Z" transform="translate(-194.86764 -174.32355)"/><path d="M587.40238,242.76532c11.202-21.12027,44.0773-17.51635,48.57467,5.76691.67583,23.648-16.81618,46.626-10.97131,71.53718-1.82968,2.42855-10.80225-.75187-14.80681.83995-2.629-19.19563-14.42915-41.53364-22.144-61.566-5.164-45.90819-6.12752,2.55786,2.7727,22.04079,6.13249,16.49984,11.09275,33.28492,5.70339,50.50956,4.78247-.17252,11.15408-.41492,15.89145-.27154,8.54092.1859,17.53326,1.9619,25.90867,3.6384-8.07407-30.92046,9.523-58.84439,6.7844-88.78361C637.34773,217.79945,596.51567,215.83734,587.40238,242.76532Z" transform="translate(-194.86764 -174.32355)"/><path d="M602.39945,229.96551c8.68619-10.42228,14.31037-30.67836-4.382-33.01243,35.17743-25.62973,29.76463,58.7674,31.77164,1.35955-7.86023-26.34707-46.53949-18.88213-49.72622,6.62192C601.09468,207.967,608.51511,205.17565,602.39945,229.96551Z" transform="translate(-194.86764 -174.32355)"/><path d="M635.08549,276.08172c1.26943-9.022-3.77249-18.66354-10.75266-23.80134a75.94789,75.94789,0,0,0-12.198,12.01715c.42957,7.3-4.97459.09532-8.50847-1.24766-2.76345,4.6791-6.77015,9.99606-1.27844,7.91878.38719,1.77986-.64273-.37982-.69557-.15344,2.27722,3.7483,4.20562,9.62208,9.39947,9.598C624.24944,277.88849,622.24443,256.47719,635.08549,276.08172Z" transform="translate(-194.86764 -174.32355)"/><path d="M484.34135,234.01776c-30.27044-51.25332-79.12817,8.54989-51.32173,48.48783,5.5936,25.42734-10.25916,51.64205,26.15589,38.923,21.62528,3.62571,7.01286-13.25462,11.26-27.12778,2.71831-21.18709,15.46115-44.31115,6.73973-65.34268,6.03929,27.77616-18.49226,52.25911-16.921,80.51234-.71986,2.27274-9.34915.67325-12.39183,1.82882-1.87266.84719-.85954-1.48964-1.03205-2.431,4.43959-24.21975-12.779-45.90952-11.71353-68.89507C439.65243,216.05647,473.592,213.27369,484.34135,234.01776Z" transform="translate(-194.86764 -174.32355)"/><path d="M469.33988,221.2077c-7.0577-26.83215,4.06479-20.004,22.67606-25.07313-2.66619-24.89079-42.302-31.37539-45.72245-4.09593,6.58787,39.15934-1.78744-20.73165,27.2618-4.04711C457.26429,192.73875,458.5337,207.30882,469.33988,221.2077Z" transform="translate(-194.86764 -174.32355)"/><path d="M436.6685,267.4533c4.07859-4.9024,8.68309-12.79642,12.64507-4.49946,22.46255,24.499,9.332-19.37022,28.15527-6.16939-7.3921-9.14158-12.30769-13.54208-18.33465.05329.98985-2.225-8.79-9.68173-11.90677-12.53727C440.60155,248.95323,435.022,259.36563,436.6685,267.4533Z" transform="translate(-194.86764 -174.32355)"/><path d="M1005.13236,725.67645C868.792,684.36559,724.86282,698.43113,585.035,708.07672c-130.40455,2.43734-262.66912-38.5115-390.16733,1.36295,120.11711-31.62307,244.00578,7.36345,366.0626,10.66025C709.70241,716.24832,858.374,689.27682,1005.13236,725.67645Z" transform="translate(-194.86764 -174.32355)"/><path d="M686.274,547.41229c17.95624,48.08151,16.5354,104.79924-7.28473,150.57883C716.37419,659.95609,721.35411,587.855,686.274,547.41229Z" transform="translate(-194.86764 -174.32355)"/><path d="M779.86332,559.65985c-27.10275,36.45717-45.59021,88.55786-18.98671,130.03753C748.88076,647.96013,770.42834,597.18732,779.86332,559.65985Z" transform="translate(-194.86764 -174.32355)"/><path d="M631.80522,479.676c54.9142,27.99661,5.25082,84.81409,67.77935,104.35588C647.20684,550.3027,706.45616,499.19205,631.80522,479.676Z" transform="translate(-194.86764 -174.32355)"/><path d="M816.61576,480.50164c-75.23266,50.71238,26.70091,85.36245-42.193,121.00046,45.574-4.997,37.848-51.00685,22.06422-80.34114C793.93094,504.38176,817.03569,496.88187,816.61576,480.50164Z" transform="translate(-194.86764 -174.32355)"/><path d="M807.22025,486.20379c24.15146-16.2212-5.49312-70.88368-33.28277-49.80883-20.90134-29.18353-54.9033-8.18909-71.00664,14.154-22.1308,8.30136-79.40926-27.236-64.59855,23.89967-6.45078-50.91677,45.41911-.66547,68.42444-13.44654,19.937-17.62386,40.49287-40.61907,64.27654-14.50032,8.96744,2.77276,14.258-8.47365,22.65465-5.4236C806.4229,448.35492,821.6431,474.84275,807.22025,486.20379Z" transform="translate(-194.86764 -174.32355)"/><path d="M662.80229,592.72284c5.36145,17.5061,18.58365,23.74889,35.82973,24.74142C690.649,605.79022,675.93363,594.70135,662.80229,592.72284Z" transform="translate(-194.86764 -174.32355)"/><path d="M496.30424,556.94647c-35.83046,42.23412-28.91711,110.61028,13.48864,145.52984C481.38905,661.50615,477.94679,602.2874,496.30424,556.94647Z" transform="translate(-194.86764 -174.32355)"/><path d="M405.542,569.363c8.93044,44.38081,30.85076,86.74271,26.17428,132.69045C450.95,658.34981,430.49883,605.65307,405.542,569.363Z" transform="translate(-194.86764 -174.32355)"/><path d="M549.19242,489.14276c-33.85087,7.22426-50.75351,37.511-39.15272,69.76934,4.69067,17.32452-37.44257,54.77568-7.71093,31.39243C541.78391,558.77576,494.9517,518.8143,549.19242,489.14276Z" transform="translate(-194.86764 -174.32355)"/><path d="M369.8892,490.15692c-.153,14.15007,16.06471,21.65658,18.87287,34.48326-14.78433,42.49413-12.52515,79.192,16.21425,75.86863C356.84819,561.77305,438.12144,540.32677,369.8892,490.15692Z" transform="translate(-194.86764 -174.32355)"/><path d="M379.24467,495.66229c-14.03618-11.30419,1.15106-37.77128,13.54114-44.69464,7.92886-2.258,15.128,10.36354,24.13324,4.74409,21.607-27.67417,42.20892,1.902,61.91289,14.183,23.69028,8.48905,58.17615-37.89944,71.35582-.65517,1.21921,17.15266,1.86115,17.4496,2.21244-.44589-7.02341-37.64034-46.19956-8.51232-67.97129-8.54941-19.68677-17.59648-50.52231-45.5708-72.83686-13.77925C384.165,425.49285,355.87472,479.748,379.24467,495.66229Z" transform="translate(-194.86764 -174.32355)"/><path d="M519.10209,602.21209c-17.95211,2.43858-25.9305,14.38595-29.38371,31.09609C502.30033,627.37372,515.2769,614.75262,519.10209,602.21209Z" transform="translate(-194.86764 -174.32355)"/><path d="M834.96537,322.1662c-61.65786-4.73221-122.37018,10.60531-181.11046-13.5983-97.84449-4.25228-196.25081,2.90689-291.04626,6.72323C512.19954,312.03431,683.18826,337.17248,834.96537,322.1662Z" transform="translate(-194.86764 -174.32355)"/><path d="M718.87748,196.22088c26.93837-33.577,67.28928,34.49415,28.67052,47.72055-34.18192,8.93861-47.04668-39.24287-21.25526-58.09322-41.08463,21.59751-10.65251,89.78613,32.47346,66.1905C803.031,228.68541,746.57239,150.3278,718.87748,196.22088Z" transform="translate(-194.86764 -174.32355)"/></svg>