<svg xmlns="http://www.w3.org/2000/svg" data-name="Layer 1" width="414.91398" height="614.21264" viewBox="0 0 414.91398 614.21264" xmlns:xlink="http://www.w3.org/1999/xlink"><path d="M549.55554,364.531c41.58344-3.325,70.32621-55.91534,50.67005-92.71037s-79.34948-42.14214-105.23217-9.42633S486.9797,369.53466,549.55554,364.531Z" transform="translate(-392.54301 -142.89368)" fill="#f89c1c" data-darkreader-inline-fill="" style="--darkreader-inline-fill:#f9a42f;"/><path d="M472.8694,153.28238c60.88978,17.94515,134.80021,36.01964,173.469,89.9625,28.40429,161.70431,14.015,332.05242,16.91356,496.5737-6.785,24.698-55.60156-35.59919-68.52127-41.41251C550.29565,656.9203,489.107,619.74345,487.14326,552.73017c-5.242-131.122-5.1106-261.1913-8.67021-392.72264-.86393,109.14106-1.42347,227.82905-1.66306,350.13129-4.20569,56.15575,10.73454,113.78169,57.69,149.114,28.216,16.42994,118.351,137.38362,140.58536,84.62043-.83251-171.71238,7.80121-338.9614-21.6421-500.12675C615.60919,185.87751,535.05321,169.55516,472.8694,153.28238Z" transform="translate(-392.54301 -142.89368)"/><path d="M668.38182,753.43277c18.67419-3.45133,43.47943,3.65571,59.06966-7.9499,5.50907-49.87651-2.88446-102.12438-2.71391-152.84149-10.47673-127.833,2.3135-263.47048-41.92352-385.48364-28.63139-52.299-100.68167-53.45184-153.01442-63.3228-13.48722-1.28376-33.03594-3.41961-40.41177,10.51223,6.64128-11.52062,22.65947-10.45495,34.33663-9.11729,185.20313,14.60659,169.6357,114.73035,180.00157,266.72386,6.684,110.31064,13.45932,212.48343,21.76828,317.71976C731.80727,759.787,685.58872,747.15813,668.38182,753.43277Z" transform="translate(-392.54301 -142.89368)"/><path d="M723.33745,739.29507c52.07853,56.1557,33.261-266.814,25.2787-292.47415-19.75939-47.11317-32.694-276.1557-72.22321-266.99682C718.75047,188.25456,702.14944,332.29677,725.72362,390,736.71327,422.046,778.5377,786.47658,723.33745,739.29507Z" transform="translate(-392.54301 -142.89368)"/><path d="M692.042,583.65054c-3.23312,49.20746-.13212,97.50475,4.97038,146.07608C706.19862,683.27589,705.86671,628.75884,692.042,583.65054Z" transform="translate(-392.54301 -142.89368)"/><path d="M694.84172,567.91373c-3.98383-116.74419,18.99574-256.19354-46.7118-359.15314-26.60237-31.02753-69.84315-28.51511-104.93517-43.48289,44.09626,19.27618,101.65848,25.79867,116.26775,80.52476C686.61553,347.92058,685.22794,466.79764,694.84172,567.91373Z" transform="translate(-392.54301 -142.89368)"/><path d="M510.12563,272.47134c54.87572,10.28087,135.77784-11.59391,128.90926,70.35681,2.02029,21.40308,9.272,97.19963-18.30561,98.97425-146.18419-24.872-98.48092-32.92209-108.63407-171.02283,1.04828,45.37348-17.72214,113.65479,7.20906,156.96508,60.69308,10.27452,136.05286,66.73728,133.89071-35.39216C656.03688,265.15208,620.96741,270.43319,510.12563,272.47134Z" transform="translate(-392.54301 -142.89368)"/><path d="M762.425,143.75821c-12.43624.30823-12.404,18.52783,0,18.86975C774.86186,162.31973,774.82932,144.10027,762.425,143.75821Z" transform="translate(-392.54301 -142.89368)"/><path d="M401.85811,298.52987c-12.43625.30822-12.404,18.52782,0,18.86974C414.29493,317.09138,414.2624,298.87193,401.85811,298.52987Z" transform="translate(-392.54301 -142.89368)"/><path d="M798.14157,633.585c-12.43625.30823-12.404,18.52783,0,18.86975C810.5784,652.1465,810.54586,633.927,798.14157,633.585Z" transform="translate(-392.54301 -142.89368)"/></svg>